<?xml version="1.0" encoding="utf-8"?>
<!-- Svg Vector Icons : http://www.onlinewebfonts.com/icon -->
<!DOCTYPE svg PUBLIC "-//W3C//DTD SVG 1.1//EN" "http://www.w3.org/Graphics/SVG/1.1/DTD/svg11.dtd">
<svg version="1.1" xmlns="http://www.w3.org/2000/svg" xmlns:xlink="http://www.w3.org/1999/xlink" x="0px" y="0px" viewBox="0 0 256 256" enable-background="new 0 0 256 256" xml:space="preserve">
<metadata> Svg Vector Icons : http://www.onlinewebfonts.com/icon </metadata>
<g><g><g><path fill="#000000" d="M172.2,10c-15.3,1.4-28,10.9-33.9,25.4l-1.6,4h-8.8l-8.9-0.1l-0.9-2.7c-4.4-12.5-15.3-22.3-28.4-25.7c-3-0.8-5.8-1-10.6-1c-5.8,0-6.9,0.2-9.2,1.3c-1.5,0.7-3.6,2.3-4.8,3.7c-3.5,4-3.8,5.3-3.8,24v16.3L56.4,58C32.5,72.1,16,93.5,10.9,117.3c-0.7,3.4-0.9,6.7-0.9,15c0,9.9,0.1,11.1,1.5,16.3c5.8,23.2,21.8,43.3,45.3,57.1l4.5,2.7V221c0,9.7,0.2,13.2,0.8,15.3c1,3.4,4.4,7.2,7.8,8.8c2.6,1.3,2.6,1.3,24.7,1.3s22.1,0,24.7-1.3c3.3-1.5,6.9-5.5,7.7-8.5c0.3-1.3,0.7-2.2,0.9-2.2s0.6,1,0.9,2.2c0.8,3,4.4,7,7.7,8.5c2.6,1.3,2.6,1.3,24.7,1.3s22.1,0,24.7-1.3c3.4-1.6,6.8-5.4,7.8-8.8c0.6-2,0.8-5.6,0.8-15.3v-12.6l4.6-2.7c8.2-4.8,14.3-9.6,21.2-16.5c7.4-7.3,11.7-12.8,15.7-19.9c7.5-13.5,10.4-24.8,9.8-40c-0.4-12.8-2.1-19.5-7.9-31.1c-4.4-8.9-9.1-15.3-16.7-23c-6.7-6.8-13.6-12.2-21.7-17l-5.1-3V38.9c0-18.8-0.2-20-3.9-24.2C186.7,10.4,181.7,9.1,172.2,10z M86.2,25.3c6.3,1.7,11.6,5.4,15.1,10.7c3,4.5,4.2,8.8,4.2,14.8c0,2.7,0.2,4.9,0.4,4.9c0.2,0,3.2-0.4,6.6-0.8c8-0.9,22.7-0.9,30.7,0c3.4,0.4,6.4,0.8,6.7,0.8c0.2,0,0.4-2.2,0.4-4.9c0-6,1.3-10.4,4.2-14.8c4.9-7.3,12.7-11.5,21.7-11.5h3.7v20v20l5.6,2.8c9.9,5,16.6,9.7,24.3,17c25.4,24.4,28.7,58.5,8.4,85.4c-7.5,10-20.4,20.4-32.8,26.5l-5.5,2.8v16.3v16.3h-18.7h-18.7v-11.5v-11.6l-3.1,0.4c-4,0.5-19,0.5-23,0l-3.1-0.4v11.6v11.5H94.6H75.9v-16.3v-16.3l-5.5-2.8c-17.5-8.7-33-23.5-40-38.3c-15.9-33.5,0.5-70.9,39.8-90.7l5.7-2.9v-20v-20h3.8C81.7,24.5,84.7,24.9,86.2,25.3z"/><path fill="#000000" d="M109.9,99.4c-4.7,2.2-5.5,8.4-1.5,12c1.6,1.4,2.3,1.6,4.7,1.6c2.4,0,3.1-0.2,4.7-1.6c2.6-2.3,3.3-4.9,2.1-8C118.2,99.2,114.1,97.4,109.9,99.4z"/><path fill="#000000" d="M139.4,99.4c-1.2,0.6-2.2,1.8-3.1,3.4c-1.6,3.3-1.2,5.6,1.5,8.3c1.8,1.8,2.2,2,4.8,2c2.6,0,3.2-0.2,4.8-1.6c4-3.5,3.3-9.8-1.5-12C143.2,98.2,141.7,98.2,139.4,99.4z"/><path fill="#000000" d="M115.8,121.7c-9.6,1.7-17.7,5.9-24.4,12.6c-7.3,7.4-10.8,16-10.2,25.2c1,14.9,12,27.5,28.7,32.7c10.6,3.3,25.4,3.3,35.9,0c16.7-5.3,27.6-17.8,28.7-32.7c0.7-9.2-2.9-17.9-10.2-25.2c-6.9-6.9-14.8-10.9-24.9-12.7C134,120.6,121.3,120.7,115.8,121.7z M141.5,129.4c1.9,0.5,5.6,1.9,8.3,3.2c4,1.9,5.6,3.1,9.2,6.6c9,9,10.9,19.1,5.6,29.8c-2.8,5.8-9.8,11.9-17.2,15c-6.1,2.6-9.5,3.1-19.4,3.1c-6.8,0-10-0.2-12.6-0.9c-17.6-4.4-28.9-18.1-26.5-32.2c1-5.9,3.2-9.9,8.2-14.8c3.5-3.5,5.2-4.7,9.3-6.7c7.4-3.6,12.1-4.5,23-4.2C135.4,128.4,139.1,128.8,141.5,129.4z"/><path fill="#000000" d="M109.3,151.5c-3.3,2-4.4,5.5-2.9,9.1c1.2,2.6,2.8,3.9,5.5,4.3c4.5,0.7,8.4-2.6,8.4-7.1c0-4.2-3.1-7.3-7.2-7.3C111.9,150.5,110.3,151,109.3,151.5z"/><path fill="#000000" d="M138.8,151.7c-6.8,4.5-2.5,14.7,5.6,13.2c5-1,7.4-8.1,4-11.9C145.9,150.3,141.8,149.7,138.8,151.7z"/></g></g></g>
</svg>